<?xml version="1.0" standalone="no"?><!DOCTYPE svg PUBLIC "-//W3C//DTD SVG 1.1//EN" "http://www.w3.org/Graphics/SVG/1.1/DTD/svg11.dtd"><svg class="icon" height="512" viewBox="0 0 1024 1024" version="1.1" xmlns="http://www.w3.org/2000/svg"><path d="M157.375443 15.676104c-16.455235-9.500939-37.562991-3.842226-47.059478 12.608557a34.557774 34.557774 0 0 0 5.168974 41.289461 6.678261 6.678261 0 1 0 9.554365-9.331757 21.15673 21.15673 0 0 1-3.161043-25.279443 21.125565 21.125565 0 0 1 28.818922-7.72007 21.121113 21.121113 0 0 1 7.720069 28.818922 21.112209 21.112209 0 0 1-14.278122 10.168765 6.678261 6.678261 0 1 0 2.533287 13.111652 34.442017 34.442017 0 0 0 23.316035-16.602156c9.492035-16.455235 3.833322-37.562991-12.613009-47.063931zM974.331548 128.454122a24.544835 24.544835 0 0 0-15.017183-11.522226 24.816417 24.816417 0 0 0-27.674713 11.259547 6.678261 6.678261 0 0 0 11.486609 6.820731 11.40647 11.40647 0 0 1 12.728765-5.177878c2.933983 0.788035 5.38713 2.671304 6.909774 5.302539s1.923339 5.698783 1.135304 8.637217c-0.783583 2.933983-2.666852 5.38713-5.298087 6.905322s-5.707687 1.918887-8.637217 1.135304a11.370852 11.370852 0 0 1-7.283757-6.023791 6.678261 6.678261 0 0 0-12.016417 5.841252 24.709565 24.709565 0 0 0 15.845287 13.080487 24.567096 24.567096 0 0 0 18.774817-2.470956 24.576 24.576 0 0 0 11.526679-15.017183 24.620522 24.620522 0 0 0-2.479861-18.770365zM52.424348 386.515478h-14.024348v-18.316243a6.678261 6.678261 0 1 0-13.356522 0v18.316243H6.976557a6.678261 6.678261 0 1 0 0 13.356522h18.066921v13.775026a6.678261 6.678261 0 1 0 13.356522 0v-13.775026h14.024348a6.678261 6.678261 0 1 0 0-13.356522zM241.690713 121.38407h-5.400487v-6.954296a6.678261 6.678261 0 1 0-13.356522 0v6.954296h-7.755687a6.678261 6.678261 0 1 0 0 13.356521h7.755687v4.474435a6.678261 6.678261 0 1 0 13.356522 0v-4.474435h5.400487a6.678261 6.678261 0 1 0 0-13.356521z" fill="#C7E6E7" /><path d="M271.582609 431.224209h274.529948v95.0272H254.330435zM540.961391 568.502539H255.065043v13.356522h285.896348a6.678261 6.678261 0 0 0 0-13.356522zM540.961391 613.024278H265.006748v13.356522h275.950191a6.678261 6.678261 0 0 0 0.004452-13.356522zM538.757565 657.546017H279.930435v13.356522h258.82713a6.678261 6.678261 0 0 0 0-13.356522z" fill="#C7E6E7" /><path d="M254.090017 619.528904h-0.031165l-49.365704-0.231513a6.678261 6.678261 0 0 1 0.031165-13.356521h0.031165l49.365705 0.231513a6.678261 6.678261 0 0 1-0.031166 13.356521zM264.085148 653.5168h-0.057878l-59.338574-0.47193a6.682713 6.682713 0 0 1 0.053426-13.356522h0.053426l59.343026 0.47193a6.682713 6.682713 0 0 1-0.053426 13.356522zM204.724313 585.554365a6.678261 6.678261 0 0 1-0.093496-13.356522l43.66247-0.618852h0.093496a6.678261 6.678261 0 0 1 0.093495 13.356522l-43.662469 0.618852h-0.093496zM200.347826 471.930435l64.658922 0.325008-11.442087 71.693357H200.347826z" fill="#C7E6E7" /><path d="M538.980174 327.234783h13.356522v13.356521h-13.356522zM507.814957 327.234783h13.356521v13.356521h-13.356521zM476.649739 327.234783h13.356522v13.356521h-13.356522zM505.375165 776.904348h13.356522v13.356522h-13.356522zM536.540383 776.904348h13.356521v13.356522h-13.356521zM598.870817 776.904348h13.356522v13.356522h-13.356522zM642.132591 342.029357l6.589218-11.615722a24.504765 24.504765 0 0 0-12.069844-3.178852h-4.176139v13.356521h4.176139c1.927791 0 3.815513 0.498643 5.480626 1.438053zM570.145391 327.234783h13.356522v13.356521h-13.356522zM567.7056 776.904348h13.356522v13.356522h-13.356522zM383.154087 327.234783h13.356522v13.356521h-13.356522zM351.98887 327.234783h13.356521v13.356521h-13.356521zM411.879513 776.904348h13.356522v13.356522h-13.356522zM414.319304 327.234783h13.356522v13.356521h-13.356522zM445.484522 327.234783h13.356521v13.356521h-13.356521zM443.04473 776.904348h13.356522v13.356522h-13.356522zM474.209948 776.904348h13.356522v13.356522h-13.356522zM647.791304 475.376417h13.356522v13.356522h-13.356522zM647.791304 568.87207h13.356522v13.356521h-13.356522zM647.791304 444.2112h13.356522v13.356522h-13.356522zM647.791304 537.706852h13.356522v13.356522h-13.356522zM647.791304 506.541635h13.356522v13.356522h-13.356522zM647.773496 351.085078l0.017808 12.986992h13.356522V351.677217c0-0.445217-0.013357-0.885983-0.035617-1.322295l-13.338713 0.730156zM647.791304 381.880765h13.356522v13.356522h-13.356522zM601.310609 327.234783h13.356521v13.356521h-13.356521zM647.791304 413.045983h13.356522v13.356521h-13.356522zM647.791304 724.698157h13.356522v13.356521h-13.356522zM647.791304 765.818435c0 0.703443-0.071235 1.411339-0.2048 2.11033l13.111653 2.546644c0.293843-1.531548 0.44967-3.098713 0.449669-4.656974v-9.950609h-13.356522v9.950609zM636.616348 776.904348h-6.584765v13.356522H636.651965c3.116522 0 6.161809-0.583235 9.046818-1.731896l-4.937461-12.408209c-1.308939 0.520904-2.60007 0.975026-4.144974 0.783583zM647.791304 693.532939h13.356522v13.356522h-13.356522zM647.791304 662.367722h13.356522v13.356521h-13.356522zM647.791304 631.202504h13.356522v13.356522h-13.356522zM647.791304 600.037287h13.356522v13.356522h-13.356522z" fill="#6F8082" /><path d="M968.134122 860.787757l-124.460522-102.23527C896.280487 698.586157 928.278261 620.112139 928.278261 534.26087c0-187.8016-152.785252-340.591304-340.591304-340.591305-123.516661 0-231.869217 66.096974-291.590679 164.770505-0.138017-0.008904-0.26713-0.04007-0.4096-0.04007H120.235409A24.531478 24.531478 0 0 0 95.721739 382.886957v342.817391c0 13.498991 10.987965 24.486957 24.495861 24.486956h197.703235c1.936696 0 3.664139-0.837009 4.884035-2.1504C385.300035 825.312835 480.794713 874.852174 587.686957 874.852174c97.164243 0 184.889878-40.964452 247.002156-106.451478 0.106852 0.097948 0.195896 0.213704 0.3072 0.3072l124.66087 102.4a6.664904 6.664904 0 0 0 9.398539-0.9216 6.678261 6.678261 0 0 0-0.9216-9.398539zM120.2176 736.834783A11.143791 11.143791 0 0 1 109.078261 725.704348V382.886957c0-6.135096 5.008696-11.130435 11.157148-11.130435h168.194226C262.086122 420.080417 247.095652 475.452104 247.095652 534.26087c0 75.820522 24.927722 145.915548 66.982957 202.573913H120.2176zM587.686957 861.495652c-76.86233 0-147.567304-26.704139-203.473253-71.234782h9.857113v-13.356522h-13.356521v10.60953C307.36473 727.454052 260.452174 636.237913 260.452174 534.26087c0-72.427965 23.690017-139.402017 63.674991-193.669566h10.053009v-12.973634C394.235548 254.076661 485.558539 207.026087 587.686957 207.026087c180.437704 0 327.234783 146.797078 327.234782 327.234783s-146.797078 327.234783-327.234782 327.234782z" fill="#6F8082" /></svg>